<svg xmlns="http://www.w3.org/2000/svg" viewBox="0 0 3000 3000" width="3000" height="3000"><g transform="translate(49.0 555.0) rotate(0.0 1436.0 810.5) scale(1.0066787103576444 1.0067572603284227)"><svg width="2852.946" height="1610.12" viewBox="0 0 2852.946 1610.12"><linearGradient id="b" gradientUnits="userSpaceOnUse" x1="1500.736" x2="1191.522" y1="1248.09" y2="-92.957"><stop offset=".067" stop-color="#fff0e0"/><stop offset=".158" stop-color="#f0ebe4"/><stop offset=".273" stop-color="#e5e8e7"/><stop offset=".402" stop-color="#e2e8e8"/><stop offset=".547" stop-color="#d9e5ea"/><stop offset=".776" stop-color="#c2ddf0"/><stop offset=".875" stop-color="#b7d9f4"/></linearGradient><linearGradient id="c" gradientTransform="matrix(1.2433848 -.03911839 .11903976 1.86617961 1670.824 4241.62)" gradientUnits="userSpaceOnUse" x1="18.172" x2="47.478" y1="-1726.543" y2="-2308.407"><stop offset=".217" stop-color="#e3e8e8"/><stop offset=".415" stop-color="#f4f0f0"/></linearGradient><linearGradient id="a" gradientUnits="userSpaceOnUse" x1="2098.041" x2="1990.266" y1="1162.235" y2="578.494"><stop offset=".112" stop-color="#e8e9e9"/><stop offset=".961" stop-color="#f6f1f1"/><stop offset="1" stop-color="#f7f1ed"/></linearGradient><linearGradient xmlns:xlink="http://www.w3.org/1999/xlink" id="d" x1="1051.348" x2="1046.786" xlink:href="#a" y1="1003.125" y2="609.445"/><linearGradient id="e" gradientUnits="userSpaceOnUse" x1="1261.668" x2="1308.004" y1="1231.658" y2="688.933"><stop offset=".39" stop-color="#b3bfc1"/><stop offset=".511" stop-color="#b7c1c1"/><stop offset=".645" stop-color="#c4cac4"/><stop offset=".67" stop-color="#c8cdc5"/></linearGradient><linearGradient id="f" gradientUnits="userSpaceOnUse" x1="2146.367" x2="2235.866" y1="1387.772" y2="190.915"><stop offset=".351" stop-color="#4d6f7b"/><stop offset=".379" stop-color="#647f7f"/><stop offset=".437" stop-color="#a0a98a"/><stop offset=".484" stop-color="#d5cf95"/></linearGradient><path d="M179.493 897.302c-9.754 45.014-19.468 99.078-20.827 157.579l2595.321 23.042C2621.915 146.489 1564.76-263.871 1580.085 178.219c7.24 208.875-2.645 370.192-122.34 438.079-274.03 155.42-707.838 207.093-880.106 217.022-291.887 16.824-378.003-28.978-398.146 63.982z" fill="url(#b)"/><path d="M2244.762 822.141C1896.743 585.01 1232.001-13.176 1237.934 272.275c1.485 71.451 66.466 205.72 65.753 272.593-1.828 171.471-270.686-147.111-440.583-74.359-78.158 33.468-155.478 280.857-145.134 281.575 284.58 19.758 966.053 62.442 1526.793 70.057z" fill="url(#c)"/><path d="M2733.922 1005.133s-747.664-318.932-893.461-366.937c-161.532-53.186-109.121 88.625-52.352 150.454 116.965 127.391-64.676 86.103-298.005 46.872-153.522-25.813-88.069 138.636-88.069 138.636z" fill="url(#a)"/><path d="M128.772 995.076s109.655-282.348 203.164-279.701c84.644 2.397 116.132 108.874 190.406 83.484 47.578-16.264 26.688-101.887 66.664-149.993 109.543-131.822 435.665 143.458 848.606 240.426 118.947 27.931 369.09 59.737 535.563 57.212-555.402 14.924-1690.946 98.348-1844.402 48.571z" fill="url(#d)"/><path d="M117.354 1026.569c335.688 139.158 1846.562 145.555 2327.341-43.276-121.392-10.334-756.507-6.272-1376.091-88.93-476.426-63.559-508.584-78.55-951.25 132.206z" fill="url(#e)"/><path d="M2103.555 979.865c-49.534-10.738-1785.817-56.564-1937.068-29.484-20.671 97.344-22.185 173.16-16.293 274.226 271.171-24.445 2169.366-197.916 1953.361-244.742z" fill="#91a766"/><path d="m732.745 924.327-5.489.329-.513-9.961c-1.052-.453-5.249 6.258-5.249 6.258l.159-9.477-4.788 8.621-2.459-12.042-8.713 6.354-1.232-10.029-4.55-3.169s-4.423 5.35-5.108 5.006c-.705-.354-.029-7.807-.029-7.807l-3.948-1.466s-6.878 12.066-9.202 12.345c-8.404 1.012-15.71 2.36-21.987 3.827-.474-8.485-2.003-16.219-2.003-16.219l-3.516-1.109s-3.843 9.587-3.868 9.583c-.02-.003.284-8.595.284-8.595l-18.57-2.413s-2.609 13.372-2.884 13.375c-.281.003-2.955-11.377-2.955-11.377l-5.152 1.381s-1.043 8.501-2.065 8.774c-1.013.271-5.95-8.072-5.95-8.072l-19.707 5.118s-2.01 9.12-2.967 9.178c-1.431.088-4.078-10.976-4.078-10.976s-1.063 12.601-3.107 12.85c-.208.025-.472-.157-.766-.458-.628-6.744-1.701-12.166-1.701-12.166l-3.516-1.108s-2.473 6.169-3.464 8.604l-.387.214c.063-2.102.265-7.83.265-7.83l-18.57-2.413s-2.609 13.372-2.884 13.375c-.281.003-2.955-11.377-2.955-11.377l-5.152 1.38s-1.043 8.501-2.066 8.774c-1.013.271-5.95-8.072-5.95-8.072l-19.707 5.118s-2.01 9.12-2.967 9.178c-1.431.088-4.078-10.976-4.078-10.976s-1.063 12.601-3.107 12.85c-1.365.167-5.048-7.955-5.048-7.955-3.078 2.409-8.752 5.281-15.325 7.907-.611-5.132-1.351-8.88-1.351-8.88l-3.516-1.108s-3.844 9.586-3.869 9.583c-.02-.003.284-8.595.284-8.595l-18.57-2.413s-2.609 13.372-2.884 13.375c-.281.003-2.955-11.377-2.955-11.377l-5.152 1.381s-1.043 8.501-2.066 8.774c-1.013.271-5.95-8.072-5.95-8.072l-19.707 5.118s-2.01 9.12-2.967 9.179c-1.431.088-4.078-10.977-4.078-10.977s-1.063 12.601-3.107 12.85c-1.365.167-5.048-7.954-5.048-7.954-4.411 3.453-14.157 7.854-24.239 11.125-9.622-4.201-24.076-11.684-47.452-16.239-2.782-.542-10.568-11.484-10.568-11.484l-5.058 1.004s-.447 7.466-1.365 7.737c-.893.263-5.367-5.545-5.367-5.545l-6.081 2.624-3.21 9.804-9.529-7.294-4.634 10.706-4.776-8.139-2.279 8.318s-3.109-6.035-4.467-5.706l-2.176 6.216a87.678 87.678 0 0 0-6.629-.952c-42.173 15.826-119.758 47.863-119.758 47.863l681.293-4.962-54.832-21.434-17.45-8.33-12.715.353-10.75-11.882z" fill="#91a766"/><path d="M1580.085 1018.08c233.259-36.914 878.003-185.58 1087.377-127.729 80.732 18.022 94.757 69.365 102.113 105.864z" fill="url(#f)"/><path d="M771.363 976.673c-363.777-45.993-514.996-27.133-610.748-11.837-1.742 8.099.847 12.339 0 20.68l334.858 185.388 1226.388-129.17c-116.583 7.728-561.507-15.879-950.499-65.061z" fill="#658462"/><path d="M1247.442 1018.527c-2.008-1.333-7.96-.243-7.96-.243l.403-12.8c-1.466-.707-8.293 7.367-8.293 7.367l1.317-12.099-7.899 10.445-2.167-15.696-13.303 7.072-.627-12.973-6.202-4.602s-6.997 6.305-7.945 5.782c-.976-.538.854-9.986.854-9.986l-5.53-2.352s-11.31 14.597-14.696 14.673c-12.244.278-22.941 1.118-32.168 2.236.289-10.908-1.028-20.982-1.028-20.982l-4.946-1.843s-6.646 11.793-6.682 11.785c-.029-.006 1.396-10.956 1.396-10.956l-26.521-5.331s-5.3 16.783-5.697 16.754c-.406-.03-2.958-14.905-2.958-14.905l-7.594 1.143s-2.481 10.744-3.987 10.97c-1.493.223-7.66-11.041-7.66-11.041l-29.026 4.162s-3.947 11.418-5.335 11.378c-2.075-.06-4.625-14.528-4.625-14.528s-2.981 15.984-5.958 16.055c-.302.007-.664-.259-1.053-.678-.132-8.699-1.058-15.762-1.058-15.762l-4.946-1.843s-4.277 7.59-5.986 10.583l-.583.226c.333-2.68 1.282-9.98 1.282-9.98l-26.521-5.331s-5.3 16.784-5.696 16.754c-.406-.03-2.959-14.905-2.959-14.905l-7.594 1.143s-2.481 10.744-3.988 10.97c-1.492.224-7.66-11.04-7.66-11.04l-29.026 4.162s-3.947 11.418-5.335 11.378c-2.075-.06-4.626-14.529-4.626-14.529s-2.98 15.984-5.958 16.055c-1.989.048-6.372-10.782-6.372-10.782-4.718 2.708-13.236 5.694-23.023 8.258-.292-6.636-.93-11.517-.93-11.517l-4.946-1.843s-6.647 11.793-6.683 11.785c-.028-.006 1.396-10.956 1.396-10.956l-26.521-5.331s-5.3 16.783-5.696 16.754c-.406-.03-2.959-14.905-2.959-14.905l-7.594 1.142s-2.481 10.744-3.988 10.97c-1.492.223-7.66-11.041-7.66-11.041l-25.047 9.519-15.403-2.054-7.332-7.074-23.33 5.306-4.882-3.813-54.36-1.973s178.095 52.36 185.838 51.101c5.781-.94 9.388-3.769 9.388-3.769 1.673-1.523 2.857-3.822 3.269-7.58 44.665 10.663 108.215 17.066 127.264 11.746 4.068-1.136 6.589-5.222 8.116-10.545 28.304 6.271 59.435 12.292 81.135 14.008 45.285 15.971 176.301 22.477 179.958 15.28 2.298-4.523-32.551-12.389-43.091-19.383z" fill="#658462"/><g fill="#33513d"><path d="M2590.636 933.769c-1.493-.79-5.479.38-5.479.38l-.842-8.947c-1.067-.391-5.042 5.706-5.042 5.706l-.154-8.522-4.504 7.823-2.857-10.788-8.504 5.846-1.563-8.997-4.655-2.779s-4.246 4.877-4.943 4.578c-.716-.308-.287-7.018-.287-7.018l-3.997-1.258s-6.48 10.952-8.795 11.239c-8.371 1.038-15.632 2.362-21.861 3.777-.754-7.621-2.538-14.55-2.538-14.55l-3.552-.943s-3.527 8.677-3.552 8.674c-.02-.002 0-7.731 0-7.731l-18.65-1.886s-2.168 12.062-2.443 12.068c-.281.007-3.33-10.182-3.33-10.182l-5.107 1.32s-.763 7.658-1.776 7.919c-1.004.259-6.217-7.165-6.217-7.165l-19.539 4.903s-1.709 8.229-2.664 8.297c-1.428.101-4.44-9.805-4.44-9.805s-.648 11.344-2.683 11.599c-.207.026-.478-.134-.781-.4-.85-6.053-2.102-10.911-2.102-10.911l-3.552-.943s-2.27 5.584-3.18 7.788l-.38.198c-.006-1.891.007-7.043.007-7.043l-18.65-1.885s-2.168 12.061-2.442 12.068c-.281.007-3.33-10.183-3.33-10.183l-5.107 1.32s-.763 7.658-1.776 7.919c-1.004.259-6.217-7.165-6.217-7.165l-19.538 4.903s-1.709 8.229-2.664 8.297c-1.428.101-4.441-9.805-4.441-9.805s-.647 11.344-2.683 11.599c-1.36.17-5.31-7.074-5.31-7.074-2.998 2.213-8.578 4.881-15.065 7.343-.78-4.604-1.644-7.962-1.644-7.962l-3.552-.943s-3.527 8.677-3.553 8.674c-.02-.002 0-7.731 0-7.731l-18.65-1.886s-2.168 12.061-2.442 12.068c-.281.007-3.33-10.182-3.33-10.182l-5.107 1.32s-.763 7.658-1.776 7.92c-1.004.259-6.217-7.165-6.217-7.165l-19.538 4.903s-1.709 8.229-2.664 8.297c-1.428.101-4.441-9.805-4.441-9.805s-.647 11.344-2.683 11.599c-1.36.17-5.31-7.074-5.31-7.074-4.298 3.172-13.898 7.278-23.873 10.372-9.761-3.629-24.462-10.136-47.989-13.873-2.8-.445-10.947-10.162-10.947-10.162l-5.025.98s-.201 6.719-1.11 6.977c-.884.25-5.55-4.903-5.55-4.903l-5.995 2.451-2.886 8.863-9.769-6.411-4.281 9.695-5.044-7.244-2.005 7.512s-3.308-5.378-4.656-5.061l-1.971 5.621s-4.749-1.439-6.661-.754c-24.05 8.617-50.336 5.864-50.251 8.789.394 13.651 592.93 2.67 592.93 2.67s-71.858-14.509-76.825-17.138z"/><path d="M1866.191 953.621c41.476-9.355 210.157-9.525 355.891-6.48 358.22 7.485 377.607-23.289 511.84 21.975 7.894 29.36 11.759 58.952 14.271 71.712l-1661.886 31.941c108.335-16.755 463.008-83.87 505.485-78.999 115.728 13.235 213.657-26.448 274.398-40.148zM538.527 1077.923c-171.856 0-298.05-142.581-372.04-127.542C66.195 970.766 43.383 1211.949 52.3 1302.523l895.225-163.009c-170.431-16.007-191.215-61.591-408.999-61.591z"/></g><path d="M2733.922 969.116c-149.607-43.914-668.128 18.432-972.573 40.756-156.916 12.168-1102.122 118.969-1401.038 181.058C112.05 1242.497 7.116 1311.747.259 1376.565c-8.202 77.525 181.118 113.427 227.647 127.09 439.076 128.935 843.972-134.089 1196.797-256.704 301.383-104.738 775.562-77.874 1391.657 55.571 53.361-171.454 21.243-302.973-82.437-333.407z" fill="#526e3e"/><path d="M1944.608 1043.707c44.802 0-31.559-8.534-158.283-15.512-323.948-17.84-1450.599 114.251-1678.052 240.999-10.659 5.94 1297.135-123.892 1296.524-130.194-.316-3.262-352.309-1.837-556.124 2.1-4.31.083-20.024-.409-20.084-1.636-.493-10.143 1086.909-95.756 1116.019-95.756z" fill="#496238"/><path d="M242.135 1493.141c-309.004 122.201 1216.012 133.971 1030.208 59.103-185.023-74.553-269.123-77.047-228.307-82.601 93.365-12.705 1860.332 35.403 1800.239-133.628-30.358-85.393-222.361-307.821-376.916-312.287-362.755-10.482-1263.184 190.076-1684.178 298.882-234.646 60.645-511.691 158.922-541.047 170.531z" fill="#b7be61"/><path d="M2735.668 1182.665c-79.893-87.524-180.643-136.634-180.643-136.634s-293.005-5.717-293.36 16.593c-.345 21.661 168.665 38.209 167.102 50.174-.808 6.183-46.341 4.524-70.83 4.267-211.736-2.222-365.69-5.371-358.283 17.073 4.37 13.242 130.548 43.173 140.767 46.067 186.282 52.763-670.738 74.99-763.854 96.287-271.029 61.987 464.007 187.896 464.007 187.896 551.27-4.27 976.591-40.441 1010.846-110.126 8.332-13.931-15.739-62.031-115.753-171.597zM717.035 1401.321c-10.108-3.794-14.603-6.633-14.28-8.64 1.832-11.377 161.531 5.668 267.871 17.015 55.519 5.925 90.601 10.202 90.601 10.202 81.722 9.963 202.103 25.158 363.575 47.27l-350.324.848s-351.581-64.495-357.443-66.695zm-425.286 107.147c-.047-.565 8.047-2.508 24.086-6.928a1125.806 1125.806 0 0 1 62.024-15.215c355.147-76.501 717.635 35.82 742.365 43.532 16.982 5.296 43.52 15.826 42.928 18.834-1.29 6.555-132.177-19.154-310.738-35.345-7.52-.682 142.995 58.2 106.955 55.783-261.067-17.51-667.034-53.661-667.619-60.661z" fill="#c5cd68"/><path d="M2346.754 1529.168c-35.701-40.878-14.143-141.196-34.337-146.286-75.89-19.129-170.109-8.462-224.751 23.692-49.944 29.39-103.488 135.242-103.488 135.242-14.868 41.831 403.36 34.049 362.576-12.648z" fill="#3f4140"/><path d="M2082.216 1422.976c-21.328 23.941-50.34 60.227-69.701 101.636s80.537-8.678 104.567-14.035l24.622 33.256c3.424-.832 5.445-22.879 24.969-69.056l-14.915-62.024 22.98 34.567c6.086-19.722 40.942-54.184 58.241-64.56 14.394-8.634-129.436 16.275-150.763 40.216z" fill="#606060"/><path d="M2169.279 1573.628c5.551-86.645 119.996-260.374 180.276-261.432 66.155-1.161 277.265-22.23 382.227 66.858 42.135 35.762 63.417 159.456 63.417 159.456 17.212 101.072-628.664 77.929-625.921 35.117z" fill="#a7afb2"/><path d="M2235.558 1543.971c19.008 25.158 159.342 49.59 203.129 17.746 43.786-31.844 75.676-74.211 75.676-74.211s24.914 51.715 31.863 85.503c6.949 33.789 289.646-41.358 194.337-132.716s-250.292-95.237-295.902-101.208c-22.915-3-69.701 58.078-69.701 58.078s-2.077-34.393 19.915-54.851c6.693-6.227-32.565-1.876-59.744 8.066-27.178 9.942-118.581 168.434-99.573 193.593z" fill="#bababa"/></svg></g><g transform="translate(1417.0 965.0) rotate(0.0 282.0 662.0) scale(0.7324361423471462 0.7313337284597636)"><svg width="770.033" height="1810.391" viewBox="0 0 770.033 1810.391"><path d="M355.087 762.441s-102.431 173.183-93.983 219.646c8.346 45.903 174.943 277.416 174.943 277.416l19.809-18.698c-40.477-129.887-65.872-209.087-108.161-270.334C400.286 907.907 463.94 842.43 475.47 807.848L355.087 762.44z" fill="#ffc1a4"/><path d="M433.334 1255.718s-12.318 33.366-24.95 103.343c-9.029 50.021 3.353 82.406 8.429 82.377 16.739-.093 41.53-47.851 46.247-86.859 9.918-82.016-8.727-118.658-8.727-118.658l-21 19.797z" fill="#2f070f"/><path d="M599.4 1008.462c-67.137-9.158-136.119 100.842-154.078 245.691s21.908 269.695 89.044 278.853c67.137 9.157 136.12-100.842 154.078-245.691 17.959-144.849-21.908-269.695-89.044-278.853zm64.698 270.904c-15.56 125.504-65.211 222.192-110.899 215.961-45.688-6.232-70.111-113.024-54.55-238.528 15.56-125.503 65.211-222.192 110.898-215.96 45.688 6.232 70.111 113.024 54.551 238.527z"/><path d="M599.4 1008.462c-67.137-9.158-136.119 100.842-154.078 245.691s21.908 269.695 89.044 278.853c67.137 9.157 136.12-100.842 154.078-245.691 17.959-144.849-21.908-269.695-89.044-278.853zm64.698 270.904c-15.56 125.504-65.211 222.192-110.899 215.961-45.688-6.232-70.111-113.024-54.55-238.528 15.56-125.503 65.211-222.192 110.898-215.96 45.688 6.232 70.111 113.024 54.551 238.527z"/><path d="M599.052 1005.784c-67.137-9.158-136.479 103.367-154.438 248.216s22.701 271.62 89.838 280.777 137.438-102.708 155.396-247.557c17.959-144.849-23.66-272.279-90.796-281.436zm71.268 274.325c-16.537 133.387-73.022 235.643-126.161 228.395-53.14-7.248-82.811-121.256-66.274-254.643s73.022-235.643 126.161-228.395 82.811 121.255 66.274 254.643z"/><path d="m592.677 1281.325-2.504-14.785h-.006l-65.461-386.471 16.593-80.565-21.683-4.466-17.473 84.837-274.658 138.069 8.901-189.343-22.114-1.039-14.394 306.187 22.114 1.039 3.147-66.941 142.937 175.107c-7.845 12.485-12.689 29.632-12.689 48.558 0 38.187 19.713 69.143 44.03 69.143 20.975 0 38.522-23.033 42.95-53.871l150.31-25.46zm-79.253-346.48 66.391 338.652-136.369 17.896a108.14 108.14 0 0 0-.788-12.949l70.766-343.598zm-16.494-29.661-68.777 333.942c-7.712-10.442-17.754-16.757-28.736-16.757-6.179 0-12.06 2.003-17.397 5.611l-153.397-187.921L496.93 905.183z"/><path d="m592.677 1281.325-2.504-14.785h-.006l-65.461-386.471 16.593-80.565-21.683-4.466-17.473 84.837-274.658 138.069 8.901-189.343-22.114-1.039-14.394 306.187 22.114 1.039 3.147-66.941 142.937 175.107c-7.845 12.485-12.689 29.632-12.689 48.558 0 38.187 19.713 69.143 44.03 69.143 20.975 0 38.522-23.033 42.95-53.871l150.31-25.46zm-79.253-346.48 66.391 338.652-136.369 17.896a108.14 108.14 0 0 0-.788-12.949l70.766-343.598zm-16.494-29.661-68.777 333.942c-7.712-10.442-17.754-16.757-28.736-16.757-6.179 0-12.06 2.003-17.397 5.611l-153.397-187.921L496.93 905.183z"/><path d="M225.494 1068.889c-1.049 22.314-2.453 43.585-3.502 65.899-7.371-.347-15.518-1.115-22.889-1.462 3.902-86.885 8.211-185.484 12.696-253.158l20.625 32.722c-.389 16.511-2.401 62.413-4.182 104.133 2.025-.789 4.676-1.862 5.728-2.339-1.79 8.462-3.455 16.894-5.244 25.356 51.132 62.64 102.653 124.976 153.786 187.616l37.186 125.241c-16.068 12.415-28.838 8.763-37.318 3.389-22.433-14.216-43.906-68.515-15.106-112.9-47.646-58.369-94.133-116.128-141.779-174.497z"/><path d="M225.494 1068.889c-1.049 22.314-2.453 43.585-3.502 65.899-7.371-.347-15.518-1.115-22.889-1.462 3.902-86.885 8.211-185.484 12.696-253.158l20.625 32.722c-.389 16.511-2.401 62.413-4.182 104.133 2.025-.789 4.676-1.862 5.728-2.339-1.79 8.462-3.455 16.894-5.244 25.356 51.132 62.64 102.653 124.976 153.786 187.616l37.186 125.241c-16.068 12.415-28.838 8.763-37.318 3.389-22.433-14.216-43.906-68.515-15.106-112.9-47.646-58.369-94.133-116.128-141.779-174.497zm-48.814 115.774 1.994-.143 22.078 306.056-1.995.144z"/><path d="m126.515 1257.251 1.91-.591 72.29 233.69-1.91.59z"/><path d="m96.849 1354.691 1.602-1.197 102.1 136.56-1.601 1.198z"/><path d="m79.247 1662.317 119.696-172.22 1.642 1.141-119.696 172.22z"/><path d="m98.68 1721.063 100.142-230.82 1.835.796-100.143 230.82z"/><path d="m198.843 1491.056 1.826-.817 74.848 167.333-1.825.817z"/><path d="m198.986 1491.275 1.55-1.264 94.082 115.402-1.55 1.264z"/><path d="M224.058 1121.889c-92.226-12.696-188.059 130.065-214.05 318.866-25.99 188.8 27.705 352.145 119.931 364.841s188.059-130.065 214.049-318.866-27.705-352.145-119.93-364.841zm89.628 354.22c-22.334 162.238-90.213 286.907-151.613 278.454-61.4-8.452-93.07-146.825-70.736-309.063 22.334-162.239 90.214-286.907 151.614-278.454 61.4 8.452 93.07 146.824 70.736 309.063z"/><path d="M224.058 1121.889c-92.226-12.696-188.059 130.065-214.05 318.866-25.99 188.8 27.705 352.145 119.931 364.841s188.059-130.065 214.049-318.866-27.705-352.145-119.93-364.841zm89.628 354.22c-22.334 162.238-90.213 286.907-151.613 278.454-61.4-8.452-93.07-146.825-70.736-309.063 22.334-162.239 90.214-286.907 151.614-278.454 61.4 8.452 93.07 146.824 70.736 309.063z"/><path d="M219.315 1727.078c-18.676 19.993-37.111 27.905-56.084 25.294-61.4-8.452-91.978-144.728-69.645-306.967 10.9-79.179 28.749-143.804 56.948-199.484l-31.576-33.191c-35.843 41.88-69.743 119.451-81.678 228.709-17.736 162.372 29.93 317.565 100.875 347.495 31.828 13.427 66.511-6.651 92.184-37.69l-11.025-24.165z"/><path d="M219.315 1727.078c-18.676 19.993-37.111 27.905-56.084 25.294-61.4-8.452-91.978-144.728-69.645-306.967 10.9-79.179 28.749-143.804 56.948-199.484l-31.576-33.191c-35.843 41.88-69.743 119.451-81.678 228.709-17.736 162.372 29.93 317.565 100.875 347.495 31.828 13.427 66.511-6.651 92.184-37.69l-11.025-24.165z"/><path d="M224.058 1121.889C131.931 1108.49 32.6 1252.638 6.609 1441.439c-25.99 188.8 26.497 354.71 125.341 368.248 88.708 12.15 187.614-134.291 213.605-323.092 25.99-188.801-24.71-350.628-121.497-364.705zm98.922 364.901c-25.965 175.731-105.086 306.697-176.72 292.521-71.635-14.176-108.656-168.126-82.691-343.857s105.086-306.697 176.72-292.521 108.656 168.126 82.691 343.857z"/><path d="M164.761 1134.199s22.671-44.754 58.442-25.162c77.05 42.201-12.571 364.403-12.571 364.403l-17.357-5.016s42.472-234.66 25.302-298.047c-17.401-64.241-53.816-36.178-53.816-36.178z"/><path d="M164.761 1134.199s22.671-44.754 58.442-25.162c77.05 42.201-12.571 364.403-12.571 364.403l-17.357-5.016s42.472-234.66 25.302-298.047c-17.401-64.241-53.816-36.178-53.816-36.178z"/><ellipse cx="198.436" cy="1490.973" rx="28.126" ry="15.972" transform="matrix(.16286103 -.98664902 .98664902 .16286103 -1304.949 1443.927)"/><ellipse cx="588.267" cy="1278.494" rx="21.173" ry="12.024" transform="matrix(.11195457 -.99371333 .99371333 .11195457 -748.051 1719.923)"/><path d="M599.4 1008.462c-67.137-9.158-136.119 100.842-154.078 245.691s21.908 269.695 89.044 278.853c67.137 9.157 136.12-100.842 154.078-245.691 17.959-144.849-21.908-269.695-89.044-278.853zm64.698 270.904c-15.56 125.504-65.211 222.192-110.899 215.961-45.688-6.232-70.111-113.024-54.55-238.528 15.56-125.503 65.211-222.192 110.898-215.96 45.688 6.232 70.111 113.024 54.551 238.527z" fill="#6e7a89"/><path d="M599.052 1005.784c-67.137-9.158-136.479 103.367-154.438 248.216s22.701 271.62 89.838 280.777 137.438-102.708 155.396-247.557c17.959-144.849-23.66-272.279-90.796-281.436zm71.268 274.325c-16.537 133.387-73.022 235.643-126.161 228.395-53.14-7.248-82.811-121.256-66.274-254.643s73.022-235.643 126.161-228.395 82.811 121.255 66.274 254.643z"/><path d="m592.677 1281.325-2.504-14.785h-.006l-65.461-386.471 16.593-80.565-21.683-4.466-17.473 84.837-274.658 138.069 8.901-189.343-22.114-1.039-14.394 306.187 22.114 1.039 3.147-66.941 142.937 175.107c-7.845 12.485-12.689 29.632-12.689 48.558 0 38.187 19.713 69.143 44.03 69.143 20.975 0 38.522-23.033 42.95-53.871l150.31-25.46zm-79.253-346.48 66.391 338.652-136.369 17.896a108.14 108.14 0 0 0-.788-12.949l70.766-343.598zm-16.494-29.661-68.777 333.942c-7.712-10.442-17.754-16.757-28.736-16.757-6.179 0-12.06 2.003-17.397 5.611l-153.397-187.921L496.93 905.183z" fill="#3a4651"/><path d="M225.494 1068.889c-1.049 22.314-2.453 43.585-3.502 65.899-7.371-.347-15.518-1.115-22.889-1.462 3.902-86.885 8.211-185.484 12.696-253.158l20.625 32.722c-.389 16.511-2.401 62.413-4.182 104.133 2.025-.789 4.676-1.862 5.728-2.339-1.79 8.462-3.455 16.894-5.244 25.356 51.132 62.64 102.653 124.976 153.786 187.616l37.186 125.241c-16.068 12.415-28.838 8.763-37.318 3.389-22.433-14.216-43.906-68.515-15.106-112.9-47.646-58.369-94.133-116.128-141.779-174.497z" fill="#6e7a89"/><g fill="#bbb"><path d="m176.68 1184.663 1.994-.143 22.078 306.056-1.995.144z"/><path d="m126.515 1257.251 1.91-.591 72.29 233.69-1.91.59z"/><path d="m96.849 1354.691 1.602-1.197 102.1 136.56-1.601 1.198z"/><path d="m79.247 1662.317 119.696-172.22 1.642 1.141-119.696 172.22z"/><path d="m98.68 1721.063 100.142-230.82 1.835.796-100.143 230.82z"/><path d="m198.843 1491.056 1.826-.817 74.848 167.333-1.825.817z"/><path d="m198.986 1491.275 1.55-1.264 94.082 115.402-1.55 1.264z"/></g><path d="M224.058 1121.889c-92.226-12.696-188.059 130.065-214.05 318.866-25.99 188.8 27.705 352.145 119.931 364.841s188.059-130.065 214.049-318.866-27.705-352.145-119.93-364.841zm89.628 354.22c-22.334 162.238-90.213 286.907-151.613 278.454-61.4-8.452-93.07-146.825-70.736-309.063 22.334-162.239 90.214-286.907 151.614-278.454 61.4 8.452 93.07 146.824 70.736 309.063z" fill="#7c848f"/><path d="M219.315 1727.078c-18.676 19.993-37.111 27.905-56.084 25.294-61.4-8.452-91.978-144.728-69.645-306.967 10.9-79.179 28.749-143.804 56.948-199.484l-31.576-33.191c-35.843 41.88-69.743 119.451-81.678 228.709-17.736 162.372 29.93 317.565 100.875 347.495 31.828 13.427 66.511-6.651 92.184-37.69l-11.025-24.165z" fill="#b8bcc2"/><path d="M224.058 1121.889C131.931 1108.49 32.6 1252.638 6.609 1441.439c-25.99 188.8 26.497 354.71 125.341 368.248 88.708 12.15 187.614-134.291 213.605-323.092 25.99-188.801-24.71-350.628-121.497-364.705zm98.922 364.901c-25.965 175.731-105.086 306.697-176.72 292.521-71.635-14.176-108.656-168.126-82.691-343.857s105.086-306.697 176.72-292.521 108.656 168.126 82.691 343.857z"/><path d="M164.761 1134.199s22.671-44.754 58.442-25.162c77.05 42.201-12.571 364.403-12.571 364.403l-17.357-5.016s42.472-234.66 25.302-298.047c-17.401-64.241-53.816-36.178-53.816-36.178z" fill="#3a4651"/><ellipse cx="198.436" cy="1490.973" rx="28.126" ry="15.972" transform="matrix(.16286103 -.98664902 .98664902 .16286103 -1304.949 1443.927)"/><ellipse cx="588.267" cy="1278.494" rx="21.173" ry="12.024" transform="matrix(.11195457 -.99371333 .99371333 .11195457 -748.051 1719.923)"/><path d="M549.389 827.912c5.28 47.52 20.226 123.713 42.24 222.814 11.494 51.744 11.616 124.607 26.4 175.294 24.888 85.33 49.632 141.503 84.479 239.71 7.744-.352 15.821-1.99 23.565-2.342-10.539-110.082-14.692-192.463-23.102-252.345-9.671-68.859-22.445-96.009-26.879-153.032-2.379-30.604 27.472-220.595 27.472-220.595z" fill="#ffc1a4"/><path d="M549.002 827.888c.576 13.908 3.637 27.279 5.164 34.949 48.574 22.704 98.489 34.126 141.9 23.94 2.346-14.109 6.001-31.126 7.498-49.36l-154.563-9.528zm70.966 213.035c12.241 3.515 17.763 4.693 28.316-.369 6.029-2.892-.916 10.475-12.78 10.475-12.523 0-20.054-11.404-15.536-10.106z" fill="#ff7265"/><path d="M702.149 1464.72s-4.79 87.98 6.31 140.454c5.514 26.065 29.574 62.656 45.112 59.688 13.33-2.546 18.546-40.641 14.154-67.695-5.626-34.649-41.653-134.697-41.653-134.697l-23.924 2.251z" fill="#2f070f"/><path d="M329.183 776.788c-.937 1.469.243 7.114 1.879 11.167a26.139 26.139 0 0 0 4.423 7.244c4.893-7.641 8.453-14.95 10.627-17.077 7.536-7.372 43.345-8.322 69.267 12.065 0 0-69.686-39.267-86.196-13.399z" fill="#f0801a"/><path d="M472.065 552.433s-1.213 55.982-41.171 97.243c-57.217 59.084-103.692 129.295-101.711 127.112 22.175-24.43 54.282 5.121 208.408 63.322 119.814 45.245 214.182 17.538 232.303-35.791 2.968-8.735-41.73-47.294-107.372-221.498-17.558-46.596-68.881-70.907-68.881-70.907l-121.576 40.518z" fill="#f89724"/><path d="m472.065 552.433-3.287 23.761s7.618 17.494 36.877 40.322c2.514 1.961-17.543-30.558-17.543-30.558 16.422 9.448 29.708 14.308 36.946 14.179-8.943 22.82 1.141 35.047 24.737 50.899-9.018 41.236-27.125 68.182-16.411 91.108-35.65 17.794-77.98 38.703-68.06 55.739 0 0 204.885-44.975 156.339-218.716-20.19-72.257-149.598-26.734-149.598-26.734z" fill="#f0801a"/><path d="M16.791 723.213c-5.365 0-7.505 18.363-4.791 20.319 5.747 4.14 32.535 10.095 54.489 30.406 37.857 35.021 40.692 38.44 55.35 45.769 39.495 19.748 200.046 49.182 282.577 32.345 26.022-5.309 54.656-26.046 71.523-33.068 25.388-10.569 87.576-2.749 91.051-4.393 4.549-2.152 4.843-22.351 1.506-23.948-4.011-1.919-59.234-8.084-92.401 4.395-33.439 12.581-52.29 30.859-83.59 35.027-57.708 7.683-245.156-7.745-278.235-44.754-12.936-14.473-25.12-28.795-64.57-49.248-15.824-8.204-27.546-12.85-32.911-12.85z"/><path d="M546.272 749.336c-23.573 9.809-84.423 32.284-82.505 45.435 8.298 56.898 28.642 52.072 28.642 52.072 7.002 4.523 12.596 2.08 17.123-.178 5.318 1.844 12.264-.394 15.526-6.591 3.667 2.792 10.854-.6 15.27-8.055 4.013-6.774 5.496-21.679 15.513-39.646 8.92-15.998 14.492-23.297 14.514-28.367.015-3.35-19.835-16.439-24.084-14.671z" fill="#ffc1a4"/><path d="M481.088 801.758c-2.972 3.179 6.51 44.524 6.51 44.524 1.795.545 3.462.852 4.81.561 0 0-5.442-51.373-11.32-45.085zm21.744 3.187c-4.658.733 1.444 43.873 1.444 43.873 1.825-.462 3.707-1.185 5.256-2.153 0 0-2.389-42.398-6.7-41.72zm19.967-1.564c-3.995 1.314-1.629 41.274-1.629 41.274.674-.394 2.546-2.055 3.888-4.58 0 0 2.021-38.102-2.259-36.694zm24.343-54.35c-2.649.48-13.276 5.346-13.276 5.346 13.462 8.667 32.248 17.905 29.59 24.84 0 0 7.113-10.202 7.112-15.379 0-3.904-19.364-15.544-23.427-14.807z" fill="#ff7265"/><path d="M118.101 678.797c-21.829 22.07-72.451 40.774-73.435 50.467-6.139 60.441 8.518 54.617 8.518 54.617.85 7.743 7.304 8.498 11.73 9.45 1.903 5.811 8.57 8.498 12.995 6.649 1.145 4.268 13.097 7.392 13.617-5.328.417-10.187 1.014-14.422 1.014-14.422 2.001-11.248 11.991-2.692 21.733 5.081 0 0 17.623-6.869 9.103-66.752-.63-4.428 15.472-20.422 15.472-20.422l-20.746-19.34z" fill="#ffc1a4"/><path d="M92.641 779.709s1.476-10.352 5.436-10.476c5.617-.176 14.349 14.608 14.349 14.608-10.379-8.298-17.467-11.466-19.785-4.132zm-14.733 20.272c-.812.378-2.883.793-4.325.515 0 0-.596-42.626 3.269-40.847 2.433 1.12 1.057 40.332 1.057 40.332zm-12.994-6.649c-1.451-.248-2.7-.522-3.613-.84 0 0 .478-44.543 3.302-43.255 4.058 1.851.312 44.095.312 44.095zm-11.73-9.45c-1.575.222-2.807.054-3.482-.666 0 0 1.127-44.406 4.326-42.135 2.596 1.843-.845 42.8-.845 42.8z" fill="#ff7265"/><path d="M339.395 598.999c35.495-1.307 43.967 33.061 105.844 33.061 9.645-13.243 32.189-48.511 26.719-111.561l-36.643-36.297c-39.878 45.57-88.587 99.301-95.92 114.796z" fill="#060606"/><path d="M465.6 264.489s-16.545 51.235 15.095 59.466c35.928 9.347 70.044-63.566 70.044-63.566s98.812 10.535 68.545 210.144c-5.243 34.579-20.254 70.084-53.685 91.031-32.975 20.662-83.166 12.676-89.843.491-19.638-35.839-42.221-55.968-49.586-75.115-71.388-185.609 39.43-222.452 39.43-222.452z" fill="#fff"/><path d="M422.281 476.478c5.113.47 13.202 1.845 22.971.78 30.819-3.359 45.912-9.008 70.004-9.587 10.557-.254 26.103.897 45.312 8.119l-.643 19.299c-11.408-5.444-20.973-7.939-27.035-9.253-33.599-7.285-42.338.62-86.088 1.248-9.099.13-16.42-.023-20.634-.143l-3.888-10.463zm42.763-210.761c-21.86 76.053-34.449 80.44-34.449 164.732 0 0-27.295-70.689 1.311-121.278 4.814-8.513 33.138-43.454 33.138-43.454z" fill="#c9c5c3"/><path d="M465.6 264.489c4.42-.349-25.281 29.68-38.346 70.647-3.564 11.176-2.874 30.309-1.98 42.065 5.148 67.719 17.821 121.973 3.564 148.11-14.764 27.066-70.491 44.75-89.443 73.688-.779 1.19 27.506-82.258 20.629-135.157-.407-3.129-20.508 60.933-93.027 143.812-79.918 80.214-96.905 66.037-96.905 66.037s-21.142 22.952-29.876 27.032c-1.915.895-25.945-18.307-25.944-29.155 1.621-8.348 25.891-27.563 25.891-27.563-1.379-5.743-6.598-11.297.34-23.227 11.809-20.309 75.909-79.209 102.248-118.77 60.399-90.718 85.756-169.727 143.214-207.044 23.106-15.006 56.977-28.684 79.634-30.474zm87.4-3.283c4.829 4.511 7.305 67.505 1.814 110.964-11.444 90.584 15.869 83.171-29.757 244.613 6.729 13.65 22.092 22.504 42.681 28.454-16.725 25.755-27.294 50.936-14.938 73.981 0 0-7.905 16.707-9.247 25.609-.902 5.978 19.352 18.566 31.233 20.155 4.893.654 16.427-25.846 16.427-25.846s33.944 5.803 57.391-95.056c6.443-27.716 49.15-55.017 21.857-270.333C656.191 261.17 553 261.206 553 261.206z" fill="#252b3d"/><g fill="#827f83" opacity=".71"><path d="m147.639 633.687-.574-.818c94.467-66.26 140.779-136.016 203.161-258.086l.891.455c-62.459 122.22-108.838 192.068-203.478 258.45zm22.656 23.919-.404-.915c47.188-20.865 129.485-77.785 149.435-141.693l.955.298c-11.035 35.351-40.302 66.259-62.911 85.963-26.025 22.682-58.576 43.746-87.074 56.348z"/><path d="m264.809 470.261-.839-.544c14.338-22.135 26.166-41.675 36.602-58.915 40.629-67.118 61.022-100.807 130.303-122.938l.304.952c-68.924 22.018-89.253 55.6-129.752 122.504-10.439 17.246-22.272 36.793-36.618 58.941z"/><path d="M319.303 515.167c-1.719-41.696-3.342-81.079 8.193-147.469l.985.171c-11.517 66.285-9.896 105.616-8.18 147.257l-.999.041zm-19.35 45.64c-6.877-45.404-3.614-79.038-.735-108.713 1.447-14.917 2.814-29.006 2.814-43.34h1c0 14.383-1.369 28.496-2.819 43.437-2.873 29.617-6.13 63.186.728 108.467l-.989.149zm-30.263 41.166-1-.034c.443-12.883-1.15-32.504-2.837-53.277-2.465-30.35-5.013-61.733-1.956-78.761l.984.177c-3.034 16.9-.491 48.217 1.969 78.503 1.689 20.803 3.285 40.452 2.84 53.392zm-25.193 21.251c-13.547-21.376-22.986-48.066-28.057-79.327l.987-.16c5.049 31.126 14.441 57.689 27.915 78.952zm-25.384 24.668c-24.473-26.553-34.037-49.271-31.981-75.96l.997.077c-2.033 26.385 7.453 48.876 31.719 75.205zm156.574-81.426-.963-.269c17.291-61.958 10.448-115.544 4.411-162.823-4.413-34.564-8.225-64.414-1.442-90.288l.967.254c-6.733 25.686-2.933 55.447 1.467 89.907 6.049 47.372 12.905 101.064-4.44 163.218zm25.78-16.862-.967-.255c23.042-87.411 14.774-129.066 6.778-169.35-5.441-27.415-10.581-53.31-4.799-91.733l.989.148c-5.757 38.251-.633 64.063 4.791 91.39 8.018 40.396 16.309 82.166-6.792 169.8z"/><path d="m363.901 358.997-.317-.948c2.988-1 5.843-2.111 8.603-3.186 8.3-3.23 16.883-6.571 29.932-7.178l.046.999c-12.885.6-21.012 3.763-29.616 7.111-2.771 1.078-5.637 2.193-8.648 3.202zm2.579 32.9-.377-.926c18.688-7.613 38.505-9.982 58.9-7.045l-.143.99c-20.218-2.914-39.86-.564-58.38 6.98zm.484 47.13-.348-.938c19.168-7.111 39.413-9.553 61.891-7.47l-.092.996c-22.636-2.1-42.162.255-61.451 7.411zm-1.507 58.524-.552-.834c17.537-11.622 38.889-19.441 65.274-23.903l.167.986c-26.245 4.438-47.47 12.208-64.889 23.751zm-7.993 53.122-.624-.781c21.425-17.098 48.824-31.027 75.173-38.217l.263.965c-26.222 7.155-53.49 21.017-74.813 38.033zm182.723 75.702-.92-.391c48.614-114.416 49.438-178.615 50.164-235.258.453-35.329.881-68.699 13.193-109.477l.958.289c-12.271 40.642-12.698 73.944-13.15 109.2-.728 56.735-1.552 121.04-50.244 235.636zm83.186-264.967c-.405-20.559.513-42.389 9.897-62.735l.908.419c-9.299 20.163-10.208 41.856-9.805 62.296z"/><path d="m585.954 704.684-.99-.144c7.202-49.738 20.989-81.746 34.322-112.699 9.501-22.056 18.474-42.889 25.089-69.466 22.683-91.143-.993-174-6.456-181.64-16.915-23.657-46.48-35.982-58.406-40.184l.332-.943c12.016 4.233 41.807 16.657 58.887 40.545 5.501 7.694 29.375 91.002 6.613 182.463-6.634 26.657-15.623 47.526-25.141 69.621-13.307 30.893-27.067 62.838-34.25 112.446zm14.248 27.33-.973-.231c8.262-34.728 23.774-67.555 38.774-99.301 16.89-35.745 32.844-69.507 34.655-99.627l.998.06c-1.823 30.313-17.816 64.16-34.749 99.995-14.979 31.7-30.468 64.479-38.706 99.105z"/><path d="m555.812 387.255-.292-.957c24.328-7.414 45.592-9.158 65.006-5.335l-.193.981c-19.249-3.791-40.354-2.054-64.521 5.311zm-.251 43.294-.278-.961c20.339-5.883 39.625-7.127 57.323-3.697l-.19.981c-17.54-3.399-36.669-2.162-56.855 3.677zm49.481 49.927c-10.776-6.429-28.578-4.81-46.211-2.102l-.152-.988c20.592-3.161 36.443-3.993 46.875 2.232zm-13.39 38.191c-14.512-5.356-27.872-7.141-40.844-5.459l-.129-.991c13.135-1.707 26.65.098 41.319 5.512zm-2.443 50.246c-14.812-7.495-30.035-12.394-45.245-14.562l.141-.99c15.319 2.183 30.646 7.115 45.556 14.659zm23.771-98.75-.938-.348c10.148-27.35 27.683-51.166 55.183-74.952l.654.756c-27.368 23.671-44.813 47.358-54.9 74.543zm-9.439 36.995-.878-.479c15.424-28.33 36.558-45.939 68.525-57.096l.33.944c-31.716 11.069-52.68 28.534-67.977 56.63zm2.08 37.041-.646-.764c13.744-11.625 35.413-21.374 66.246-29.803l.264.965c-30.689 8.39-52.234 18.073-65.864 29.602zm-5.308 33.283-.454-.891c17.191-8.767 41.841-14.271 73.265-16.358l.066.998c-31.288 2.078-55.807 7.546-72.877 16.25zm51.53 45.946c-18.284-6.451-37.531-9.922-57.204-10.317l.02-1c19.78.397 39.132 3.888 57.516 10.374l-.333.943zm-16.4 57.049c-18.981-12.595-42.679-18.88-70.484-18.737l-.006-1c27.991-.18 51.893 6.197 71.042 18.904l-.553.833z"/></g><path d="M653.264 319.664s-25.851 10.256-40.289 101.888c-13.844 87.862-11.616 132.216-37.61 180.327-10.503 19.44-26.524 36.28-26.524 36.28 5.877 2.88 12.172 5.244 18.897 7.077 0 0 30.553-45.752 32.094-97.638.734-24.735 15.271-145.79 22.971-168.396 15.966-46.867 34.684-51.477 34.684-51.477-.939-2.183-2.52-5.259-4.224-8.062zm-97.16 40.391c7.408-11.496 16.392-19.926 32.225-18.956.327-28.104-12.264-54.352-32.816-79.455 17.727 24.123 28.999 47.81 25.349 70.495-10.937-10.691-17.248-.763-23.55 10.482a197.074 197.074 0 0 0-1.208 17.435zm-131.453-6.144c-1.284-5.411-16.196-6.842-22.451-4.493-1.98-31.771 31.376-70.296 48.129-76.901-27.767 19.859-38.571 46.471-44.892 70.743 4.663-2.719 19.543-3.047 20.194.529l-.98 10.121zm-66.726 29.885c-3.829 68.817-47.778 135.922-50.315 172.386 22.28-32.494 40.426-63.514 52.414-92.34.638-17.736-.537-47.594-2.099-80.047zM137.698 646.01l26.329 34.05c.956-.818 4.306-4.358 6.065-6.369-6.863-1.973-24.47-21.007-29.93-29.687-.493.356-2.055 1.609-2.465 2.006zm411.8 80.687 35.171 25.911a210.248 210.248 0 0 0 6.544-13.473c-8.43-6.609-20.796-13.245-38.413-19.918-1.262 2.56-2.381 5.061-3.302 7.48z"/><path d="M411.729 16.247s-8.393-8.266-14.424-5.177c-7.401 3.79-54.974 71.92-41.567 93.498-3.024 65.814-28.852 77.752-22.909 116.826l3.863 9.741c-1.393-12.06-2.558-26.701 16.021-60.754-13.507 62.233-14.549 77.074 6.6 96.077 0 0-5.991-24.227.462-34.886.797-1.317.031 31.503 6.77 37.233 48.689 41.399 129.28-19.715 180.768-1.823 10.891 3.785 19.179 6.611 28.049 8.592 24.475 5.468 68.018-42.988 62.302-45.81-40.057-19.782-45.559-74.279-44.722-70.839 2.861 11.758 23.765 53.606 49.651 63.736 0 0 14.457-16.318 11.401-20.25-16.835-21.659-22.071-43.706-21.162-44.571.289-.275 13.537 16.489 14.246 17.224 4.959 5.139-7.784-20.216-17.93-43.737-23.486-54.448-29.165-73.1-34.519-89.564-10.415-32.025-163.512-60.927-182.9-25.516z" fill="#4a1f23"/><path d="M378.809 120.662c24.513 90.074-50.788 150.257 22.058 162.925 36.069 6.272 113.235-32.086 151.392-13.379 28.701 14.071 40.041 2.755 45.852-.092-26.511-20.97-39.489-56.196-46.505-96.456l4.693-4.285c4.524 16.338 21.747 56.485 48.751 81.05 1.325 1.205 9.067-2.439 8.176-3.554-.424-2.785-34.615-27.942-45.992-98.775-61.486-8.813-126.941-18.621-188.427-27.433z" fill="#2f070f"/><path d="M471.632 229.824s13.176 21.258 8.061 30.517c-5.876 10.637-20.566 15.76-20.566 15.76s-5.735 40.773 18.196 49.2c40.882 14.395 73.415-62.937 73.415-62.937-18.713-16.708-25.297-41.649-25.845-80.044z" fill="#ffc1a4"/><path d="M529.416 226.366c-2.624-14.012-4.171-19.422-4.522-44.046l-53.261 47.504s13.176 21.258 8.061 30.517c-5.876 10.637-20.566 15.76-20.566 15.76-.115.156-1.475 4.494-.361 16.882.194 2.162 13.714-13.884 14.017-10.186.154 1.879-4.632 30.119-.719 27.994 8.156-4.427 40.149-40.081 57.351-84.425z" fill="#ff7265"/><path d="M411.101 26.841s-52.216 62.253-32.292 93.821c14.979 23.732 6.453 52.734 11.346 65.456 8.821 22.934 37.528 51.492 62.838 57.601 23.641 5.706 72.438-57.165 72.438-57.165s30.556 11.313 43.511-34.175c9.542-33.505-22.744-45.488-33.684-38.867-60.468 6.237-125.844-59.049-124.157-86.671z" fill="#ffc1a4"/><path d="M524.995 187.109c-11.752 26.25-6.003 66.031 7.187 78.15l4.402.453c-9.394-6.984-11.896-28.149-9.334-33.947 0 0 3.088 29.733 25.481 39.746 26.813 11.989 38.055 1.532 38.055 1.532z" fill="#2f070f"/><path d="M415.712 188.961c-2.248-1.858 30.44 5.179 58.021-31.644 4.684-6.253-11.822 34.369-32.774 38.274-9.344 1.742-16.839.318-25.246-6.63zm105.727-50.871c7.305-37.937 39.9-19.241 36.158-21.722-4.308-2.857-16.866-9.4-28.177.765-8.88 7.981-8.451 23.396-7.981 20.957zm18.974-6.762c-.513-.101-6.205 10.897-4.449 26.401 1.137 10.038 6.116-15.362 12.865-10.08 10.83 8.477-10.287 25.487-11.22 28.562-.642 2.113 21.148-14.928 16.576-26.521-3.934-9.974-14.614-3.034-14.614-3.034-.547-3.659 1.196-15.257.843-15.326zm-136.498 23.458c1.502-6.401 14.74-9.398 21.202-21.202 4.359-7.963-23.631-37.347-24.747-70.554-.508-15.122 5.469-27.752 10.732-36.189-2.784.442-50.108 62.812-33.893 91.441 6.882 12.15 8.831 20.063 8.831 20.063-4.314-24.15 7.14-34.274 27.857-27.36 2.233.745 10.264 16.185 10.284 19.645.72 6.761-28.967 21.973-26.803 28.326 3.48 10.22 28.682 16.259 33.82 12.198 9.666-7.639-27.527-15.321-27.281-16.369zm38.458-78.687 4.038 25.657s12.591-13.354 17.252-6.739c14.812 21.023 61.848 18.9 61.848 18.9-34.461-1.582-65.171-21.156-83.138-37.817z" fill="#ff7265"/><ellipse cx="486.786" cy="128.776" fill="#fff" rx="10.133" ry="7.477" transform="matrix(.97591676 -.21814324 .21814324 .97591676 -16.368 109.294)"/><path d="M471.173 105.971c.911 8.443-1.161 15.74-7.435 16.268-5.029.424-9.776-4.936-11.364-13.856-1.234-6.933-.842-15.528 8.065-16.72 5.002-.669 9.824 5.865 10.734 14.308zm-64.156 16.7c.556 8.474-1.64 15.666-7.532 15.904-4.722.191-8.978-5.38-10.151-14.361-.911-6.98-.242-15.546 8.137-16.327 4.706-.438 8.989 6.309 9.545 14.784z" fill="#2f070f"/><path d="M446.671 103.961c10.36-14.45 17.456-13.469 40.115-8.916 4.844.973-20.496-12.071-34.746-2.299-7.814 5.358-7.525 14.222-5.369 11.215zm-60.299 19.589c2.1-8.459 10.331-16.922 29.756-11.819 4.115 1.081-11.521-8.536-21.691-4.304-13.348 5.555-9.046 20.073-8.065 16.123zm8.117-41.943c-5.89-.696-19.652 18.009-21.13 24.727-1.137 5.169 2.876 3.7 3.6 3.304 7.675-4.202 18.515-17.635 19.714-23.04.58-2.616-.095-4.744-2.184-4.991zm47.416-2.556c32.507-4.829 41.054-5.257 42.509-6.836 1.703-1.848-.286-4.485-5.794-5.902-8.742-2.248-23.852-1.374-35.716 6.404-5.055 3.314-6.888 7.209-.999 6.334z" fill="#2f070f"/></svg></g></svg>