<svg xmlns="http://www.w3.org/2000/svg" viewBox="0 0 24 24"><path fill="#303c42" d="M3.72 20.05a.5.5 0 0 0-.53.05l-1.55 1.19A1.48 1.48 0 0 0 1 22.5a1.5 1.5 0 0 0 3 0v-2a.5.5 0 0 0-.28-.45zM19 4a5 5 0 0 0-2.79.85.51.51 0 0 1-.7-.13.5.5 0 0 1 .14-.72 5.84 5.84 0 0 1 1.13-.58.5.5 0 0 0 .22-.75A7 7 0 0 0 4.54 6.28a4 4 0 0 0-2.28 2.31.5.5 0 0 0 .62.65A5.55 5.55 0 0 1 4.95 9a.5.5 0 0 0 .44-.2 7 7 0 0 1 12.44 2.67.5.5 0 0 0 .21.31 4.5 4.5 0 0 1 1.52 1.79.5.5 0 0 0 .45.29h.11A5 5 0 0 0 19 4zm-6.28 16.05a.5.5 0 0 0-.53.05l-1.56 1.19A1.48 1.48 0 0 0 10 22.5a1.5 1.5 0 0 0 3 0v-2a.5.5 0 0 0-.28-.45zm9-1a.5.5 0 0 0-.53.05l-1.55 1.19A1.47 1.47 0 0 0 19 21.5a1.5 1.5 0 0 0 3 0v-2a.5.5 0 0 0-.28-.45z"/><path fill="#303c42" d="M19 15.5a3.5 3.5 0 0 0-3.5-3.5.5.5 0 0 1-.5-.5.56.56 0 0 1 .68-.48h.18a.48.48 0 0 0 .46-.22.5.5 0 0 0 0-.5 6 6 0 0 0-9.55-1.53.5.5 0 0 0 .13.8 5.4 5.4 0 0 1 1 .63.5.5 0 0 1 .08.7.44.44 0 0 1-.7.08 4.5 4.5 0 1 0-2.85 8 .5.5 0 0 0 .49-.4l.58-2.89a1.5 1.5 0 0 1 1.74-1.18.5.5 0 0 0 .38-.09.5.5 0 0 0 .2-.34L8 12.81a1.49 1.49 0 0 1 .69-1.08 1.51 1.51 0 0 1 1.31-.15l3 1a1.5 1.5 0 0 1 .95 1.9l-1.29 3.87a.5.5 0 0 0 .47.66H15l-.38.29a1.48 1.48 0 0 0-.62 1.2 1.5 1.5 0 0 0 3 0v-1.85a3.5 3.5 0 0 0 2-3.15Z"/><path fill="#303c42" d="M10.69 20.46a.5.5 0 0 0 .28-.3l2-6a.5.5 0 0 0-.32-.63l-3-1a.49.49 0 0 0-.42.05.5.5 0 0 0-.23.36l-.41 3.3-1.37-.68a.5.5 0 0 0-.71.35L5 23.4a.5.5 0 0 0 .91.38l2.75-4.13 1.61.8a.5.5 0 0 0 .42.01Z"/></svg>